<svg xmlns="http://www.w3.org/2000/svg" viewBox="0 0 1440 800" preserveAspectRatio="xMidYMid slice">
  <defs>
    <radialGradient id="cbg" cx="50%" cy="50%" r="80%">
      <stop offset="0%" stop-color="#2d1545"/>
      <stop offset="60%" stop-color="#1a1025"/>
      <stop offset="100%" stop-color="#0d0815"/>
    </radialGradient>
    <linearGradient id="cg1" x1="0" y1="0" x2="1" y2="1">
      <stop offset="0%" stop-color="#D4AF37" stop-opacity="0.12"/>
      <stop offset="100%" stop-color="#D4AF37" stop-opacity="0"/>
    </linearGradient>
  </defs>
  <rect width="1440" height="800" fill="url(#cbg)"/>
  <rect width="1440" height="800" fill="url(#cg1)"/>
  <!-- Silhouettes féminines abstraites -->
  <g opacity="0.06" transform="translate(80,100)">
    <path d="M80,400 C80,320 120,260 160,220 C200,180 220,140 220,100 C220,50 200,30 160,30 C120,30 100,50 100,100" fill="none" stroke="#D4AF37" stroke-width="3"/>
    <circle cx="140" cy="68" r="30" fill="none" stroke="#D4AF37" stroke-width="2"/>
  </g>
  <g opacity="0.08" transform="translate(1040,120)">
    <path d="M80,400 C80,320 120,260 160,220 C200,180 220,140 220,100 C220,50 200,30 160,30 C120,30 100,50 100,100" fill="none" stroke="#D4AF37" stroke-width="3"/>
    <circle cx="140" cy="68" r="30" fill="none" stroke="#D4AF37" stroke-width="2"/>
  </g>
  <!-- Fleurs décoratives -->
  <g opacity="0.12">
    <circle cx="400" cy="300" r="4" fill="#D4AF37"/>
    <circle cx="395" cy="296" r="3" fill="#D4AF37" opacity="0.5"/>
    <circle cx="405" cy="296" r="3" fill="#D4AF37" opacity="0.5"/>
    <circle cx="395" cy="306" r="3" fill="#D4AF37" opacity="0.5"/>
    <circle cx="405" cy="306" r="3" fill="#D4AF37" opacity="0.5"/>
  </g>
  <g opacity="0.1" transform="translate(900,500)">
    <circle cx="0" cy="0" r="4" fill="#D4AF37"/>
    <circle cx="-5" cy="-4" r="3" fill="#D4AF37" opacity="0.5"/>
    <circle cx="5" cy="-4" r="3" fill="#D4AF37" opacity="0.5"/>
    <circle cx="-5" cy="6" r="3" fill="#D4AF37" opacity="0.5"/>
    <circle cx="5" cy="6" r="3" fill="#D4AF37" opacity="0.5"/>
  </g>
  <!-- Lignes courbes élégantes -->
  <g opacity="0.05">
    <path d="M0,500 Q360,420 720,500 Q1080,580 1440,500" fill="none" stroke="#D4AF37" stroke-width="1.5"/>
    <path d="M0,550 Q360,470 720,550 Q1080,630 1440,550" fill="none" stroke="#D4AF37" stroke-width="1"/>
  </g>
  <!-- Étoiles -->
  <g fill="#D4AF37" opacity="0.12">
    <polygon points="200,550 203,542 206,550 214,550 208,555 210,563 203,558 196,563 198,555 192,550" />
    <polygon points="1200,200 1203,192 1206,200 1214,200 1208,205 1210,213 1203,208 1196,213 1198,205 1192,200" />
    <polygon points="700,120 702,116 704,120 708,120 705,123 706,127 702,124 698,127 699,123 696,120" />
    <polygon points="350,650 352,646 354,650 358,650 355,653 356,657 352,654 348,657 349,653 346,650" />
  </g>
  <!-- Ornements de coin -->
  <g stroke="#D4AF37" stroke-width="0.5" fill="none" opacity="0.1">
    <path d="M30,30 L30,100 M30,30 L100,30"/>
    <path d="M1410,30 L1410,100 M1410,30 L1340,30"/>
    <path d="M30,770 L30,700 M30,770 L100,770"/>
    <path d="M1410,770 L1410,700 M1410,770 L1340,770"/>
  </g>
</svg>