<svg xmlns="http://www.w3.org/2000/svg" viewBox="0 0 1440 800" preserveAspectRatio="xMidYMid slice">
  <defs>
    <radialGradient id="fbg" cx="50%" cy="50%" r="80%">
      <stop offset="0%" stop-color="#1a2a3a"/>
      <stop offset="60%" stop-color="#121e2e"/>
      <stop offset="100%" stop-color="#080e18"/>
    </radialGradient>
  </defs>
  <rect width="1440" height="800" fill="url(#fbg)"/>
  <!-- Points d'interrogation abstraits -->
  <g opacity="0.08" transform="translate(300,180)">
    <path d="M30,0 C30,-20 60,-20 60,0 C60,15 45,20 45,35" fill="none" stroke="#D4AF37" stroke-width="2" stroke-linecap="round"/>
    <circle cx="45" cy="55" r="4" fill="#D4AF37"/>
  </g>
  <g opacity="0.06" transform="translate(1050,380) scale(1.3)">
    <path d="M30,0 C30,-20 60,-20 60,0 C60,15 45,20 45,35" fill="none" stroke="#D4AF37" stroke-width="2" stroke-linecap="round"/>
    <circle cx="45" cy="55" r="4" fill="#D4AF37"/>
  </g>
  <g opacity="0.05" transform="translate(120,500) scale(0.8)">
    <path d="M30,0 C30,-20 60,-20 60,0 C60,15 45,20 45,35" fill="none" stroke="#D4AF37" stroke-width="2" stroke-linecap="round"/>
    <circle cx="45" cy="55" r="4" fill="#D4AF37"/>
  </g>
  <g opacity="0.05" transform="translate(800,150) scale(0.7)">
    <path d="M30,0 C30,-20 60,-20 60,0 C60,15 45,20 45,35" fill="none" stroke="#D4AF37" stroke-width="2" stroke-linecap="round"/>
    <circle cx="45" cy="55" r="4" fill="#D4AF37"/>
  </g>
  <!-- Cercles décoratifs -->
  <circle cx="720" cy="400" r="280" fill="none" stroke="#D4AF37" stroke-width="0.4" opacity="0.05"/>
  <circle cx="720" cy="400" r="180" fill="none" stroke="#D4AF37" stroke-width="0.4" opacity="0.08"/>
  <circle cx="720" cy="400" r="90" fill="none" stroke="#D4AF37" stroke-width="0.6" opacity="0.12"/>
  <!-- Lignes -->
  <g opacity="0.04">
    <line x1="0" y1="250" x2="1440" y2="250" stroke="#D4AF37" stroke-width="0.5"/>
    <line x1="0" y1="550" x2="1440" y2="550" stroke="#D4AF37" stroke-width="0.5"/>
  </g>
  <!-- Ornements de coin -->
  <g stroke="#D4AF37" stroke-width="0.5" fill="none" opacity="0.1">
    <path d="M30,30 L30,100 M30,30 L100,30"/>
    <path d="M1410,30 L1410,100 M1410,30 L1340,30"/>
    <path d="M30,770 L30,700 M30,770 L100,770"/>
    <path d="M1410,770 L1410,700 M1410,770 L1340,770"/>
  </g>
</svg>