<svg xmlns="http://www.w3.org/2000/svg" viewBox="0 0 1440 800" preserveAspectRatio="xMidYMid slice">
  <defs>
    <radialGradient id="gbg" cx="50%" cy="50%" r="80%">
      <stop offset="0%" stop-color="#2a1f35"/>
      <stop offset="60%" stop-color="#181228"/>
      <stop offset="100%" stop-color="#0c0818"/>
    </radialGradient>
  </defs>
  <rect width="1440" height="800" fill="url(#gbg)"/>
  <!-- Cadres photo abstraits -->
  <g opacity="0.06">
    <rect x="180" y="180" width="200" height="260" rx="4" fill="none" stroke="#D4AF37" stroke-width="1.5"/>
    <line x1="180" y1="210" x2="380" y2="210" stroke="#D4AF37" stroke-width="0.8"/>
    <circle cx="210" cy="198" r="6" fill="none" stroke="#D4AF37" stroke-width="0.8"/>
  </g>
  <g opacity="0.08">
    <rect x="250" y="240" width="200" height="260" rx="4" fill="none" stroke="#D4AF37" stroke-width="1.5"/>
    <line x1="250" y1="270" x2="450" y2="270" stroke="#D4AF37" stroke-width="0.8"/>
  </g>
  <g opacity="0.05">
    <rect x="950" y="160" width="180" height="240" rx="4" fill="none" stroke="#D4AF37" stroke-width="1.5"/>
    <line x1="950" y1="190" x2="1130" y2="190" stroke="#D4AF37" stroke-width="0.8"/>
  </g>
  <g opacity="0.07">
    <rect x="1020" y="220" width="180" height="240" rx="4" fill="none" stroke="#D4AF37" stroke-width="1.5"/>
    <line x1="1020" y1="250" x2="1200" y2="250" stroke="#D4AF37" stroke-width="0.8"/>
  </g>
  <!-- Éclats/étincelles -->
  <g fill="#D4AF37" opacity="0.1">
    <polygon points="600,300 602,294 604,300 610,300 605,304 607,310 602,306 597,310 599,304 594,300" />
    <polygon points="800,500 802,494 804,500 810,500 805,504 807,510 802,506 797,510 799,504 794,500" />
    <polygon points="450,580 452,576 454,580 458,580 455,583 456,587 452,584 448,587 449,583 446,580" />
    <polygon points="1000,450 1002,446 1004,450 1008,450 1005,453 1006,457 1002,454 998,457 999,453 996,450" />
  </g>
  <!-- Ornements de coin -->
  <g stroke="#D4AF37" stroke-width="0.5" fill="none" opacity="0.1">
    <path d="M30,30 L30,100 M30,30 L100,30"/>
    <path d="M1410,30 L1410,100 M1410,30 L1340,30"/>
    <path d="M30,770 L30,700 M30,770 L100,770"/>
    <path d="M1410,770 L1410,700 M1410,770 L1340,770"/>
  </g>
  <!-- Légères lignes horizontales -->
  <g stroke="#D4AF37" stroke-width="0.3" opacity="0.04">
    <line x1="0" y1="350" x2="1440" y2="350"/>
    <line x1="0" y1="500" x2="1440" y2="500"/>
  </g>
</svg>