<svg xmlns="http://www.w3.org/2000/svg" viewBox="0 0 1440 800" preserveAspectRatio="xMidYMid slice">
  <defs>
    <radialGradient id="lbg" cx="50%" cy="50%" r="80%">
      <stop offset="0%" stop-color="#1a1a2e"/>
      <stop offset="60%" stop-color="#10101e"/>
      <stop offset="100%" stop-color="#08080e"/>
    </radialGradient>
  </defs>
  <rect width="1440" height="800" fill="url(#lbg)"/>
  <!-- Bouclier abstrait -->
  <g opacity="0.06" transform="translate(570,180) scale(1.2)">
    <path d="M120,0 L240,40 L240,140 C240,240 180,280 120,300 C60,280 0,240 0,140 L0,40 Z" fill="none" stroke="#D4AF37" stroke-width="2" stroke-linejoin="round"/>
    <line x1="120" y1="60" x2="120" y2="180" stroke="#D4AF37" stroke-width="1.5" stroke-linecap="round"/>
    <line x1="80" y1="120" x2="160" y2="120" stroke="#D4AF37" stroke-width="1.5" stroke-linecap="round"/>
  </g>
  <!-- Lignes de document -->
  <g opacity="0.05">
    <line x1="200" y1="180" x2="380" y2="180" stroke="#D4AF37" stroke-width="1"/>
    <line x1="200" y1="210" x2="380" y2="210" stroke="#D4AF37" stroke-width="1"/>
    <line x1="200" y1="240" x2="340" y2="240" stroke="#D4AF37" stroke-width="1"/>
    <line x1="1060" y1="450" x2="1240" y2="450" stroke="#D4AF37" stroke-width="1"/>
    <line x1="1060" y1="480" x2="1240" y2="480" stroke="#D4AF37" stroke-width="1"/>
    <line x1="1060" y1="510" x2="1200" y2="510" stroke="#D4AF37" stroke-width="1"/>
  </g>
  <!-- Cercles -->
  <circle cx="720" cy="400" r="300" fill="none" stroke="#D4AF37" stroke-width="0.3" opacity="0.04"/>
  <circle cx="720" cy="400" r="200" fill="none" stroke="#D4AF37" stroke-width="0.3" opacity="0.06"/>
  <circle cx="720" cy="400" r="100" fill="none" stroke="#D4AF37" stroke-width="0.5" opacity="0.08"/>
  <!-- Étoiles -->
  <g fill="#D4AF37" opacity="0.08">
    <polygon points="500,550 502,546 504,550 508,550 505,553 506,557 502,554 498,557 499,553 496,550" />
    <polygon points="950,250 952,246 954,250 958,250 955,253 956,257 952,254 948,257 949,253 946,250" />
    <polygon points="250,500 252,496 254,500 258,500 255,503 256,507 252,504 248,507 249,503 246,500" />
  </g>
  <!-- Ornements de coin -->
  <g stroke="#D4AF37" stroke-width="0.5" fill="none" opacity="0.1">
    <path d="M30,30 L30,100 M30,30 L100,30"/>
    <path d="M1410,30 L1410,100 M1410,30 L1340,30"/>
    <path d="M30,770 L30,700 M30,770 L100,770"/>
    <path d="M1410,770 L1410,700 M1410,770 L1340,770"/>
  </g>
</svg>